<svg width="202" height="36" viewBox="0 0 202 36" fill="none" xmlns="http://www.w3.org/2000/svg">
<mask id="path-1-outside-1_1901_557" maskUnits="userSpaceOnUse" x="35" y="5" width="167" height="26" fill="black">
<rect fill="white" x="35" y="5" width="167" height="26"/>
<path d="M48.7322 13.4567C48.647 12.5973 48.2813 11.9297 47.6349 11.4538C46.9886 10.978 46.1115 10.7401 45.0036 10.7401C44.2507 10.7401 43.6151 10.8466 43.0966 11.0597C42.5781 11.2656 42.1804 11.5533 41.9034 11.9226C41.6335 12.2919 41.4986 12.7109 41.4986 13.1797C41.4844 13.5703 41.5661 13.9112 41.7436 14.2024C41.9283 14.4936 42.1804 14.7457 42.5 14.9588C42.8196 15.1648 43.1889 15.3459 43.608 15.5021C44.027 15.6513 44.4744 15.7791 44.9503 15.8857L46.9105 16.3544C47.8622 16.5675 48.7358 16.8516 49.5312 17.2067C50.3267 17.5618 51.0156 17.9986 51.598 18.517C52.1804 19.0355 52.6314 19.6463 52.951 20.3494C53.2777 21.0526 53.4446 21.8587 53.4517 22.7678C53.4446 24.103 53.1037 25.2607 52.429 26.2408C51.7614 27.2138 50.7955 27.9702 49.5312 28.5099C48.2741 29.0426 46.7578 29.3089 44.9822 29.3089C43.2209 29.3089 41.6868 29.0391 40.38 28.4993C39.0803 27.9595 38.0646 27.1605 37.3331 26.1023C36.6087 25.0369 36.2287 23.7195 36.1932 22.1499H40.657C40.7067 22.8814 40.9162 23.4922 41.2855 23.9822C41.6619 24.4652 42.1626 24.831 42.7876 25.0795C43.4197 25.321 44.1335 25.4418 44.929 25.4418C45.7102 25.4418 46.3885 25.3281 46.9638 25.1009C47.5462 24.8736 47.9972 24.5575 48.3168 24.1527C48.6364 23.7479 48.7962 23.2827 48.7962 22.7571C48.7962 22.267 48.6506 21.8551 48.3594 21.5213C48.0753 21.1875 47.6563 20.9034 47.1023 20.669C46.5554 20.4347 45.8842 20.2216 45.0888 20.0298L42.7131 19.4332C40.8736 18.9858 39.4212 18.2862 38.3558 17.3345C37.2905 16.3828 36.7614 15.1009 36.7685 13.4886C36.7614 12.1676 37.1129 11.0135 37.8232 10.0263C38.5405 9.03906 39.5241 8.26847 40.7741 7.71449C42.0241 7.16051 43.4446 6.88352 45.0355 6.88352C46.6548 6.88352 48.0682 7.16051 49.2756 7.71449C50.4901 8.26847 51.4347 9.03906 52.1094 10.0263C52.7841 11.0135 53.1321 12.157 53.1534 13.4567H48.7322ZM56.4693 29V12.6364H60.7946V15.5234H60.9863C61.3272 14.5646 61.8954 13.8082 62.6909 13.2543C63.4863 12.7003 64.438 12.4233 65.546 12.4233C66.6681 12.4233 67.6234 12.7038 68.4118 13.2649C69.2001 13.8189 69.7257 14.5717 69.9885 15.5234H70.1589C70.4927 14.5859 71.0964 13.8366 71.97 13.2756C72.8507 12.7074 73.8912 12.4233 75.0914 12.4233C76.6184 12.4233 77.8578 12.9098 78.8095 13.8828C79.7683 14.8487 80.2477 16.2195 80.2477 17.995V29H75.72V18.8899C75.72 17.9808 75.4785 17.299 74.9956 16.8445C74.5126 16.3899 73.9089 16.1626 73.1845 16.1626C72.3606 16.1626 71.7179 16.4254 71.2562 16.951C70.7946 17.4695 70.5637 18.1548 70.5637 19.0071V29H66.1639V18.794C66.1639 17.9915 65.9331 17.3523 65.4714 16.8764C65.0169 16.4006 64.4167 16.1626 63.671 16.1626C63.1667 16.1626 62.7122 16.2905 62.3074 16.5462C61.9096 16.7947 61.5936 17.1463 61.3592 17.6009C61.1248 18.0483 61.0076 18.5739 61.0076 19.1776V29H56.4693ZM88.4988 29.3089C87.4547 29.3089 86.5243 29.1278 85.7076 28.7656C84.8908 28.3963 84.2445 27.853 83.7686 27.1357C83.2999 26.4112 83.0655 25.5092 83.0655 24.4297C83.0655 23.5206 83.2324 22.7571 83.5662 22.1392C83.9 21.5213 84.3546 21.0241 84.9299 20.6477C85.5051 20.2713 86.1586 19.9872 86.8901 19.7955C87.6287 19.6037 88.4029 19.4688 89.2125 19.3906C90.1642 19.2912 90.9313 19.1989 91.5137 19.1136C92.0961 19.0213 92.5186 18.8864 92.7814 18.7088C93.0442 18.5312 93.1756 18.2685 93.1756 17.9205V17.8565C93.1756 17.1818 92.9625 16.6598 92.5364 16.2905C92.1174 15.9212 91.5208 15.7365 90.7466 15.7365C89.9299 15.7365 89.28 15.9176 88.7971 16.2798C88.3141 16.6349 87.9945 17.0824 87.8382 17.6222L83.6408 17.2812C83.8539 16.2869 84.2729 15.4276 84.8979 14.7031C85.5229 13.9716 86.329 13.4105 87.3162 13.0199C88.3105 12.6222 89.4611 12.4233 90.7679 12.4233C91.677 12.4233 92.5471 12.5298 93.378 12.7429C94.2161 12.956 94.9583 13.2862 95.6046 13.7337C96.258 14.1811 96.7729 14.7564 97.1493 15.4595C97.5257 16.1555 97.714 16.9901 97.714 17.9631V29H93.41V26.7308H93.2821C93.0194 27.2422 92.6678 27.6932 92.2275 28.0838C91.7871 28.4673 91.258 28.7692 90.6401 28.9893C90.0222 29.2024 89.3084 29.3089 88.4988 29.3089ZM89.7985 26.1768C90.4661 26.1768 91.0556 26.0455 91.5669 25.7827C92.0783 25.5128 92.4796 25.1506 92.7708 24.696C93.062 24.2415 93.2076 23.7266 93.2076 23.1513V21.4148C93.0655 21.5071 92.8702 21.5923 92.6216 21.6705C92.3801 21.7415 92.1067 21.8089 91.8013 21.8729C91.4959 21.9297 91.1905 21.983 90.8851 22.0327C90.5797 22.0753 90.3027 22.1143 90.0542 22.1499C89.5215 22.228 89.0563 22.3523 88.6586 22.5227C88.2608 22.6932 87.9519 22.924 87.7317 23.2152C87.5115 23.4993 87.4015 23.8544 87.4015 24.2805C87.4015 24.8984 87.6252 25.3707 88.0726 25.6974C88.5272 26.017 89.1025 26.1768 89.7985 26.1768ZM101.235 29V12.6364H105.635V15.4915H105.805C106.104 14.4759 106.604 13.7088 107.307 13.1903C108.01 12.6648 108.82 12.402 109.736 12.402C109.964 12.402 110.209 12.4162 110.471 12.4446C110.734 12.473 110.965 12.5121 111.164 12.5618V16.5888C110.951 16.5249 110.656 16.468 110.28 16.4183C109.903 16.3686 109.559 16.3438 109.246 16.3438C108.579 16.3438 107.982 16.4893 107.456 16.7805C106.938 17.0646 106.526 17.4624 106.221 17.9737C105.922 18.4851 105.773 19.0746 105.773 19.7422V29H101.235ZM123.034 12.6364V16.0455H113.18V12.6364H123.034ZM115.417 8.71591H119.956V23.9716C119.956 24.3906 120.02 24.7173 120.147 24.9517C120.275 25.179 120.453 25.3388 120.68 25.4311C120.914 25.5234 121.184 25.5696 121.49 25.5696C121.703 25.5696 121.916 25.5518 122.129 25.5163C122.342 25.4737 122.505 25.4418 122.619 25.4205L123.333 28.7976C123.105 28.8686 122.786 28.9503 122.374 29.0426C121.962 29.142 121.461 29.2024 120.872 29.2237C119.778 29.2663 118.819 29.1207 117.995 28.7869C117.179 28.4531 116.543 27.9347 116.088 27.2315C115.634 26.5284 115.41 25.6406 115.417 24.5682V8.71591ZM144.677 7.18182V29H140.692L131.2 15.2678H131.04V29H126.428V7.18182H130.476L139.893 20.9034H140.085V7.18182H144.677ZM155.796 29.3196C154.142 29.3196 152.71 28.968 151.503 28.2649C150.303 27.5547 149.376 26.5675 148.722 25.3033C148.069 24.032 147.742 22.5582 147.742 20.8821C147.742 19.1918 148.069 17.7145 148.722 16.4503C149.376 15.179 150.303 14.1918 151.503 13.4886C152.71 12.7784 154.142 12.4233 155.796 12.4233C157.451 12.4233 158.879 12.7784 160.079 13.4886C161.286 14.1918 162.217 15.179 162.87 16.4503C163.524 17.7145 163.85 19.1918 163.85 20.8821C163.85 22.5582 163.524 24.032 162.87 25.3033C162.217 26.5675 161.286 27.5547 160.079 28.2649C158.879 28.968 157.451 29.3196 155.796 29.3196ZM155.818 25.804C156.57 25.804 157.199 25.5909 157.703 25.1648C158.208 24.7315 158.588 24.142 158.843 23.3963C159.106 22.6506 159.237 21.8018 159.237 20.8501C159.237 19.8984 159.106 19.0497 158.843 18.304C158.588 17.5582 158.208 16.9687 157.703 16.5355C157.199 16.1023 156.57 15.8857 155.818 15.8857C155.058 15.8857 154.419 16.1023 153.9 16.5355C153.389 16.9687 153.002 17.5582 152.739 18.304C152.483 19.0497 152.355 19.8984 152.355 20.8501C152.355 21.8018 152.483 22.6506 152.739 23.3963C153.002 24.142 153.389 24.7315 153.9 25.1648C154.419 25.5909 155.058 25.804 155.818 25.804ZM172.831 29.2663C171.588 29.2663 170.463 28.9467 169.454 28.3075C168.453 27.6612 167.657 26.7131 167.068 25.4631C166.485 24.206 166.194 22.6648 166.194 20.8395C166.194 18.9645 166.496 17.4055 167.1 16.1626C167.703 14.9126 168.506 13.9787 169.507 13.3608C170.516 12.7358 171.62 12.4233 172.82 12.4233C173.737 12.4233 174.5 12.5795 175.111 12.892C175.729 13.1974 176.226 13.581 176.602 14.0426C176.986 14.4972 177.277 14.9446 177.476 15.3849H177.615V7.18182H182.142V29H177.668V26.3793H177.476C177.263 26.8338 176.961 27.2848 176.57 27.7322C176.187 28.1726 175.686 28.5384 175.068 28.8295C174.458 29.1207 173.712 29.2663 172.831 29.2663ZM174.269 25.6548C175.001 25.6548 175.619 25.456 176.123 25.0582C176.634 24.6534 177.025 24.0888 177.295 23.3643C177.572 22.6399 177.71 21.7912 177.71 20.8182C177.71 19.8452 177.575 19 177.306 18.2827C177.036 17.5653 176.645 17.0114 176.134 16.6207C175.622 16.2301 175.001 16.0348 174.269 16.0348C173.524 16.0348 172.895 16.2372 172.384 16.642C171.872 17.0469 171.485 17.608 171.222 18.3253C170.96 19.0426 170.828 19.8736 170.828 20.8182C170.828 21.7699 170.96 22.6115 171.222 23.343C171.492 24.0675 171.879 24.6357 172.384 25.0476C172.895 25.4524 173.524 25.6548 174.269 25.6548ZM193.331 29.3196C191.648 29.3196 190.199 28.9787 188.984 28.2969C187.777 27.608 186.847 26.6349 186.193 25.3778C185.54 24.1136 185.213 22.6186 185.213 20.8928C185.213 19.2095 185.54 17.7322 186.193 16.4609C186.847 15.1896 187.766 14.1989 188.952 13.4886C190.146 12.7784 191.545 12.4233 193.15 12.4233C194.229 12.4233 195.234 12.5973 196.165 12.9453C197.102 13.2862 197.919 13.8011 198.615 14.4901C199.318 15.179 199.865 16.0455 200.256 17.0895C200.646 18.1264 200.842 19.3409 200.842 20.733V21.9794H187.024V19.1669H196.57C196.57 18.5135 196.428 17.9347 196.143 17.4304C195.859 16.9261 195.465 16.532 194.961 16.2479C194.464 15.9567 193.885 15.8111 193.224 15.8111C192.536 15.8111 191.925 15.9709 191.392 16.2905C190.866 16.603 190.455 17.0256 190.156 17.5582C189.858 18.0838 189.705 18.6697 189.698 19.3161V21.9901C189.698 22.7997 189.847 23.4993 190.146 24.0888C190.451 24.6783 190.881 25.1328 191.435 25.4524C191.989 25.772 192.646 25.9318 193.406 25.9318C193.91 25.9318 194.371 25.8608 194.79 25.7188C195.21 25.5767 195.568 25.3636 195.866 25.0795C196.165 24.7955 196.392 24.4474 196.548 24.0355L200.746 24.3125C200.533 25.321 200.096 26.2017 199.435 26.9545C198.782 27.7003 197.937 28.2827 196.9 28.7017C195.87 29.1136 194.68 29.3196 193.331 29.3196Z"/>
</mask>
<path d="M48.7322 13.4567C48.647 12.5973 48.2813 11.9297 47.6349 11.4538C46.9886 10.978 46.1115 10.7401 45.0036 10.7401C44.2507 10.7401 43.6151 10.8466 43.0966 11.0597C42.5781 11.2656 42.1804 11.5533 41.9034 11.9226C41.6335 12.2919 41.4986 12.7109 41.4986 13.1797C41.4844 13.5703 41.5661 13.9112 41.7436 14.2024C41.9283 14.4936 42.1804 14.7457 42.5 14.9588C42.8196 15.1648 43.1889 15.3459 43.608 15.5021C44.027 15.6513 44.4744 15.7791 44.9503 15.8857L46.9105 16.3544C47.8622 16.5675 48.7358 16.8516 49.5312 17.2067C50.3267 17.5618 51.0156 17.9986 51.598 18.517C52.1804 19.0355 52.6314 19.6463 52.951 20.3494C53.2777 21.0526 53.4446 21.8587 53.4517 22.7678C53.4446 24.103 53.1037 25.2607 52.429 26.2408C51.7614 27.2138 50.7955 27.9702 49.5312 28.5099C48.2741 29.0426 46.7578 29.3089 44.9822 29.3089C43.2209 29.3089 41.6868 29.0391 40.38 28.4993C39.0803 27.9595 38.0646 27.1605 37.3331 26.1023C36.6087 25.0369 36.2287 23.7195 36.1932 22.1499H40.657C40.7067 22.8814 40.9162 23.4922 41.2855 23.9822C41.6619 24.4652 42.1626 24.831 42.7876 25.0795C43.4197 25.321 44.1335 25.4418 44.929 25.4418C45.7102 25.4418 46.3885 25.3281 46.9638 25.1009C47.5462 24.8736 47.9972 24.5575 48.3168 24.1527C48.6364 23.7479 48.7962 23.2827 48.7962 22.7571C48.7962 22.267 48.6506 21.8551 48.3594 21.5213C48.0753 21.1875 47.6563 20.9034 47.1023 20.669C46.5554 20.4347 45.8842 20.2216 45.0888 20.0298L42.7131 19.4332C40.8736 18.9858 39.4212 18.2862 38.3558 17.3345C37.2905 16.3828 36.7614 15.1009 36.7685 13.4886C36.7614 12.1676 37.1129 11.0135 37.8232 10.0263C38.5405 9.03906 39.5241 8.26847 40.7741 7.71449C42.0241 7.16051 43.4446 6.88352 45.0355 6.88352C46.6548 6.88352 48.0682 7.16051 49.2756 7.71449C50.4901 8.26847 51.4347 9.03906 52.1094 10.0263C52.7841 11.0135 53.1321 12.157 53.1534 13.4567H48.7322ZM56.4693 29V12.6364H60.7946V15.5234H60.9863C61.3272 14.5646 61.8954 13.8082 62.6909 13.2543C63.4863 12.7003 64.438 12.4233 65.546 12.4233C66.6681 12.4233 67.6234 12.7038 68.4118 13.2649C69.2001 13.8189 69.7257 14.5717 69.9885 15.5234H70.1589C70.4927 14.5859 71.0964 13.8366 71.97 13.2756C72.8507 12.7074 73.8912 12.4233 75.0914 12.4233C76.6184 12.4233 77.8578 12.9098 78.8095 13.8828C79.7683 14.8487 80.2477 16.2195 80.2477 17.995V29H75.72V18.8899C75.72 17.9808 75.4785 17.299 74.9956 16.8445C74.5126 16.3899 73.9089 16.1626 73.1845 16.1626C72.3606 16.1626 71.7179 16.4254 71.2562 16.951C70.7946 17.4695 70.5637 18.1548 70.5637 19.0071V29H66.1639V18.794C66.1639 17.9915 65.9331 17.3523 65.4714 16.8764C65.0169 16.4006 64.4167 16.1626 63.671 16.1626C63.1667 16.1626 62.7122 16.2905 62.3074 16.5462C61.9096 16.7947 61.5936 17.1463 61.3592 17.6009C61.1248 18.0483 61.0076 18.5739 61.0076 19.1776V29H56.4693ZM88.4988 29.3089C87.4547 29.3089 86.5243 29.1278 85.7076 28.7656C84.8908 28.3963 84.2445 27.853 83.7686 27.1357C83.2999 26.4112 83.0655 25.5092 83.0655 24.4297C83.0655 23.5206 83.2324 22.7571 83.5662 22.1392C83.9 21.5213 84.3546 21.0241 84.9299 20.6477C85.5051 20.2713 86.1586 19.9872 86.8901 19.7955C87.6287 19.6037 88.4029 19.4688 89.2125 19.3906C90.1642 19.2912 90.9313 19.1989 91.5137 19.1136C92.0961 19.0213 92.5186 18.8864 92.7814 18.7088C93.0442 18.5312 93.1756 18.2685 93.1756 17.9205V17.8565C93.1756 17.1818 92.9625 16.6598 92.5364 16.2905C92.1174 15.9212 91.5208 15.7365 90.7466 15.7365C89.9299 15.7365 89.28 15.9176 88.7971 16.2798C88.3141 16.6349 87.9945 17.0824 87.8382 17.6222L83.6408 17.2812C83.8539 16.2869 84.2729 15.4276 84.8979 14.7031C85.5229 13.9716 86.329 13.4105 87.3162 13.0199C88.3105 12.6222 89.4611 12.4233 90.7679 12.4233C91.677 12.4233 92.5471 12.5298 93.378 12.7429C94.2161 12.956 94.9583 13.2862 95.6046 13.7337C96.258 14.1811 96.7729 14.7564 97.1493 15.4595C97.5257 16.1555 97.714 16.9901 97.714 17.9631V29H93.41V26.7308H93.2821C93.0194 27.2422 92.6678 27.6932 92.2275 28.0838C91.7871 28.4673 91.258 28.7692 90.6401 28.9893C90.0222 29.2024 89.3084 29.3089 88.4988 29.3089ZM89.7985 26.1768C90.4661 26.1768 91.0556 26.0455 91.5669 25.7827C92.0783 25.5128 92.4796 25.1506 92.7708 24.696C93.062 24.2415 93.2076 23.7266 93.2076 23.1513V21.4148C93.0655 21.5071 92.8702 21.5923 92.6216 21.6705C92.3801 21.7415 92.1067 21.8089 91.8013 21.8729C91.4959 21.9297 91.1905 21.983 90.8851 22.0327C90.5797 22.0753 90.3027 22.1143 90.0542 22.1499C89.5215 22.228 89.0563 22.3523 88.6586 22.5227C88.2608 22.6932 87.9519 22.924 87.7317 23.2152C87.5115 23.4993 87.4015 23.8544 87.4015 24.2805C87.4015 24.8984 87.6252 25.3707 88.0726 25.6974C88.5272 26.017 89.1025 26.1768 89.7985 26.1768ZM101.235 29V12.6364H105.635V15.4915H105.805C106.104 14.4759 106.604 13.7088 107.307 13.1903C108.01 12.6648 108.82 12.402 109.736 12.402C109.964 12.402 110.209 12.4162 110.471 12.4446C110.734 12.473 110.965 12.5121 111.164 12.5618V16.5888C110.951 16.5249 110.656 16.468 110.28 16.4183C109.903 16.3686 109.559 16.3438 109.246 16.3438C108.579 16.3438 107.982 16.4893 107.456 16.7805C106.938 17.0646 106.526 17.4624 106.221 17.9737C105.922 18.4851 105.773 19.0746 105.773 19.7422V29H101.235ZM123.034 12.6364V16.0455H113.18V12.6364H123.034ZM115.417 8.71591H119.956V23.9716C119.956 24.3906 120.02 24.7173 120.147 24.9517C120.275 25.179 120.453 25.3388 120.68 25.4311C120.914 25.5234 121.184 25.5696 121.49 25.5696C121.703 25.5696 121.916 25.5518 122.129 25.5163C122.342 25.4737 122.505 25.4418 122.619 25.4205L123.333 28.7976C123.105 28.8686 122.786 28.9503 122.374 29.0426C121.962 29.142 121.461 29.2024 120.872 29.2237C119.778 29.2663 118.819 29.1207 117.995 28.7869C117.179 28.4531 116.543 27.9347 116.088 27.2315C115.634 26.5284 115.41 25.6406 115.417 24.5682V8.71591ZM144.677 7.18182V29H140.692L131.2 15.2678H131.04V29H126.428V7.18182H130.476L139.893 20.9034H140.085V7.18182H144.677ZM155.796 29.3196C154.142 29.3196 152.71 28.968 151.503 28.2649C150.303 27.5547 149.376 26.5675 148.722 25.3033C148.069 24.032 147.742 22.5582 147.742 20.8821C147.742 19.1918 148.069 17.7145 148.722 16.4503C149.376 15.179 150.303 14.1918 151.503 13.4886C152.71 12.7784 154.142 12.4233 155.796 12.4233C157.451 12.4233 158.879 12.7784 160.079 13.4886C161.286 14.1918 162.217 15.179 162.87 16.4503C163.524 17.7145 163.85 19.1918 163.85 20.8821C163.85 22.5582 163.524 24.032 162.87 25.3033C162.217 26.5675 161.286 27.5547 160.079 28.2649C158.879 28.968 157.451 29.3196 155.796 29.3196ZM155.818 25.804C156.57 25.804 157.199 25.5909 157.703 25.1648C158.208 24.7315 158.588 24.142 158.843 23.3963C159.106 22.6506 159.237 21.8018 159.237 20.8501C159.237 19.8984 159.106 19.0497 158.843 18.304C158.588 17.5582 158.208 16.9687 157.703 16.5355C157.199 16.1023 156.57 15.8857 155.818 15.8857C155.058 15.8857 154.419 16.1023 153.9 16.5355C153.389 16.9687 153.002 17.5582 152.739 18.304C152.483 19.0497 152.355 19.8984 152.355 20.8501C152.355 21.8018 152.483 22.6506 152.739 23.3963C153.002 24.142 153.389 24.7315 153.9 25.1648C154.419 25.5909 155.058 25.804 155.818 25.804ZM172.831 29.2663C171.588 29.2663 170.463 28.9467 169.454 28.3075C168.453 27.6612 167.657 26.7131 167.068 25.4631C166.485 24.206 166.194 22.6648 166.194 20.8395C166.194 18.9645 166.496 17.4055 167.1 16.1626C167.703 14.9126 168.506 13.9787 169.507 13.3608C170.516 12.7358 171.62 12.4233 172.82 12.4233C173.737 12.4233 174.5 12.5795 175.111 12.892C175.729 13.1974 176.226 13.581 176.602 14.0426C176.986 14.4972 177.277 14.9446 177.476 15.3849H177.615V7.18182H182.142V29H177.668V26.3793H177.476C177.263 26.8338 176.961 27.2848 176.57 27.7322C176.187 28.1726 175.686 28.5384 175.068 28.8295C174.458 29.1207 173.712 29.2663 172.831 29.2663ZM174.269 25.6548C175.001 25.6548 175.619 25.456 176.123 25.0582C176.634 24.6534 177.025 24.0888 177.295 23.3643C177.572 22.6399 177.71 21.7912 177.71 20.8182C177.71 19.8452 177.575 19 177.306 18.2827C177.036 17.5653 176.645 17.0114 176.134 16.6207C175.622 16.2301 175.001 16.0348 174.269 16.0348C173.524 16.0348 172.895 16.2372 172.384 16.642C171.872 17.0469 171.485 17.608 171.222 18.3253C170.96 19.0426 170.828 19.8736 170.828 20.8182C170.828 21.7699 170.96 22.6115 171.222 23.343C171.492 24.0675 171.879 24.6357 172.384 25.0476C172.895 25.4524 173.524 25.6548 174.269 25.6548ZM193.331 29.3196C191.648 29.3196 190.199 28.9787 188.984 28.2969C187.777 27.608 186.847 26.6349 186.193 25.3778C185.54 24.1136 185.213 22.6186 185.213 20.8928C185.213 19.2095 185.54 17.7322 186.193 16.4609C186.847 15.1896 187.766 14.1989 188.952 13.4886C190.146 12.7784 191.545 12.4233 193.15 12.4233C194.229 12.4233 195.234 12.5973 196.165 12.9453C197.102 13.2862 197.919 13.8011 198.615 14.4901C199.318 15.179 199.865 16.0455 200.256 17.0895C200.646 18.1264 200.842 19.3409 200.842 20.733V21.9794H187.024V19.1669H196.57C196.57 18.5135 196.428 17.9347 196.143 17.4304C195.859 16.9261 195.465 16.532 194.961 16.2479C194.464 15.9567 193.885 15.8111 193.224 15.8111C192.536 15.8111 191.925 15.9709 191.392 16.2905C190.866 16.603 190.455 17.0256 190.156 17.5582C189.858 18.0838 189.705 18.6697 189.698 19.3161V21.9901C189.698 22.7997 189.847 23.4993 190.146 24.0888C190.451 24.6783 190.881 25.1328 191.435 25.4524C191.989 25.772 192.646 25.9318 193.406 25.9318C193.91 25.9318 194.371 25.8608 194.79 25.7188C195.21 25.5767 195.568 25.3636 195.866 25.0795C196.165 24.7955 196.392 24.4474 196.548 24.0355L200.746 24.3125C200.533 25.321 200.096 26.2017 199.435 26.9545C198.782 27.7003 197.937 28.2827 196.9 28.7017C195.87 29.1136 194.68 29.3196 193.331 29.3196Z" fill="#06283D"/>
<path d="M48.7322 13.4567L47.7371 13.5554L47.8265 14.4567H48.7322V13.4567ZM43.0966 11.0597L43.4658 11.9891L43.4767 11.9846L43.0966 11.0597ZM41.9034 11.9226L41.1033 11.3225L41.096 11.3326L41.9034 11.9226ZM41.4986 13.1797L42.4979 13.216L42.4986 13.1979V13.1797H41.4986ZM41.7436 14.2024L40.8898 14.723L40.8944 14.7305L40.8991 14.738L41.7436 14.2024ZM42.5 14.9588L41.9453 15.7909L41.9518 15.7952L41.9583 15.7994L42.5 14.9588ZM43.608 15.5021L43.2586 16.4391L43.2656 16.4417L43.2726 16.4442L43.608 15.5021ZM44.9503 15.8857L45.1829 14.9131L45.1758 14.9114L45.1688 14.9098L44.9503 15.8857ZM46.9105 16.3544L46.6779 17.327L46.685 17.3287L46.692 17.3302L46.9105 16.3544ZM49.5312 17.2067L49.1236 18.1198L49.5312 17.2067ZM51.598 18.517L52.2629 17.7701L51.598 18.517ZM52.951 20.3494L52.0406 20.7632L52.0441 20.7708L52.951 20.3494ZM53.4517 22.7678L54.4518 22.7731L54.4517 22.7599L53.4517 22.7678ZM52.429 26.2408L51.6053 25.6737L51.6044 25.675L52.429 26.2408ZM49.5312 28.5099L49.9214 29.4307L49.9239 29.4296L49.5312 28.5099ZM40.38 28.4993L39.9964 29.4228L39.9982 29.4236L40.38 28.4993ZM37.3331 26.1023L36.5061 26.6646L36.5105 26.6709L37.3331 26.1023ZM36.1932 22.1499V21.1499H35.1703L35.1934 22.1725L36.1932 22.1499ZM40.657 22.1499L41.6547 22.0821L41.5913 21.1499H40.657V22.1499ZM41.2855 23.9822L40.4869 24.5841L40.4918 24.5906L40.4968 24.597L41.2855 23.9822ZM42.7876 25.0795L42.418 26.0088L42.4308 26.0137L42.7876 25.0795ZM46.9638 25.1009L46.6002 24.1693L46.5964 24.1708L46.9638 25.1009ZM48.3168 24.1527L49.1016 24.7723L48.3168 24.1527ZM48.3594 21.5213L47.5978 22.1695L47.6058 22.1787L48.3594 21.5213ZM47.1023 20.669L46.7083 21.5882L46.7126 21.59L47.1023 20.669ZM45.0888 20.0298L44.8452 20.9998L44.8544 21.002L45.0888 20.0298ZM42.7131 19.4332L42.9566 18.4633L42.9494 18.4616L42.7131 19.4332ZM38.3558 17.3345L37.6896 18.0803H37.6896L38.3558 17.3345ZM36.7685 13.4886L37.7685 13.493L37.7685 13.4833L36.7685 13.4886ZM37.8232 10.0263L37.0142 9.43845L37.0114 9.44228L37.8232 10.0263ZM49.2756 7.71449L48.8585 8.62339L48.8606 8.62431L49.2756 7.71449ZM52.1094 10.0263L51.2838 10.5905L51.2838 10.5905L52.1094 10.0263ZM53.1534 13.4567V14.4567H54.1699L54.1533 13.4403L53.1534 13.4567ZM49.7274 13.358C49.6166 12.2408 49.121 11.3062 48.2278 10.6486L47.042 12.2591C47.4415 12.5532 47.6775 12.9538 47.7371 13.5554L49.7274 13.358ZM48.2278 10.6486C47.3552 10.0061 46.2454 9.74006 45.0036 9.74006V11.7401C45.9776 11.7401 46.6221 11.9499 47.042 12.2591L48.2278 10.6486ZM45.0036 9.74006C44.1625 9.74006 43.3892 9.85825 42.7165 10.1347L43.4767 11.9846C43.8409 11.8349 44.3389 11.7401 45.0036 11.7401V9.74006ZM42.7274 10.1303C42.0736 10.39 41.512 10.7778 41.1034 11.3226L42.7034 12.5226C42.8488 12.3287 43.0827 12.1412 43.4658 11.989L42.7274 10.1303ZM41.096 11.3326C40.6977 11.8776 40.4986 12.5044 40.4986 13.1797H42.4986C42.4986 12.9174 42.5694 12.7062 42.7108 12.5126L41.096 11.3326ZM40.4992 13.1433C40.479 13.7004 40.5959 14.241 40.8898 14.723L42.5974 13.6818C42.5362 13.5815 42.4898 13.4402 42.4979 13.216L40.4992 13.1433ZM40.8991 14.738C41.1667 15.1599 41.5227 15.5092 41.9453 15.7909L43.0547 14.1268C42.838 13.9823 42.6898 13.8273 42.5881 13.6669L40.8991 14.738ZM41.9583 15.7994C42.3478 16.0504 42.7836 16.262 43.2586 16.4391L43.9573 14.5652C43.5942 14.4298 43.2914 14.2791 43.0417 14.1182L41.9583 15.7994ZM43.2726 16.4442C43.7333 16.6082 44.2201 16.7469 44.7318 16.8615L45.1688 14.9098C44.7288 14.8113 44.3206 14.6943 43.9433 14.56L43.2726 16.4442ZM44.7177 16.8582L46.6779 17.327L47.1431 15.3818L45.1829 14.9131L44.7177 16.8582ZM46.692 17.3302C47.5863 17.5305 48.3957 17.7948 49.1236 18.1198L49.9389 16.2935C49.0759 15.9083 48.1381 15.6045 47.129 15.3786L46.692 17.3302ZM49.1236 18.1198C49.8361 18.4379 50.4358 18.8213 50.9331 19.264L52.2629 17.7701C51.5954 17.1759 50.8173 16.6857 49.9389 16.2935L49.1236 18.1198ZM50.9331 19.264C51.4124 19.6906 51.7793 20.1883 52.0406 20.7632L53.8614 19.9356C53.4835 19.1043 52.9484 18.3804 52.2629 17.7701L50.9331 19.264ZM52.0441 20.7708C52.3011 21.3239 52.4456 21.985 52.4517 22.7756L54.4517 22.7599C54.4436 21.7324 54.2543 20.7813 53.8579 19.9281L52.0441 20.7708ZM52.4517 22.7624C52.4455 23.9224 52.1526 24.8787 51.6053 25.6737L53.2527 26.8078C54.0548 25.6426 54.4437 24.2835 54.4517 22.7731L52.4517 22.7624ZM51.6044 25.675C51.061 26.467 50.2575 27.1125 49.1386 27.5903L49.9239 29.4296C51.3334 28.8278 52.4618 27.9605 53.2535 26.8065L51.6044 25.675ZM49.1411 27.5892C48.0385 28.0564 46.6622 28.3089 44.9822 28.3089V30.3089C46.8534 30.3089 48.5098 30.0288 49.9214 29.4307L49.1411 27.5892ZM44.9822 28.3089C43.3207 28.3089 41.9217 28.0541 40.7617 27.575L39.9982 29.4236C41.4519 30.024 43.121 30.3089 44.9822 30.3089V28.3089ZM40.7635 27.5758C39.6239 27.1025 38.7678 26.4191 38.1557 25.5336L36.5105 26.6709C37.3615 27.9019 38.5366 28.8166 39.9964 29.4228L40.7635 27.5758ZM38.16 25.54C37.5657 24.6659 37.225 23.5465 37.1929 22.1272L35.1934 22.1725C35.2324 23.8924 35.6517 25.408 36.5062 26.6646L38.16 25.54ZM36.1932 23.1499H40.657V21.1499H36.1932V23.1499ZM39.6593 22.2177C39.7195 23.1045 39.9797 23.9111 40.4869 24.5841L42.0841 23.3804C41.8527 23.0733 41.6938 22.6583 41.6547 22.0821L39.6593 22.2177ZM40.4968 24.597C40.9931 25.2337 41.6446 25.7011 42.4181 26.0087L43.1572 24.1503C42.6807 23.9608 42.3308 23.6967 42.0742 23.3675L40.4968 24.597ZM42.4308 26.0137C43.1949 26.3056 44.0325 26.4418 44.929 26.4418V24.4418C44.2345 24.4418 43.6446 24.3364 43.1445 24.1454L42.4308 26.0137ZM44.929 26.4418C45.8042 26.4418 46.6126 26.3148 47.3312 26.0309L46.5964 24.1708C46.1644 24.3415 45.6162 24.4418 44.929 24.4418V26.4418ZM47.3273 26.0324C48.0403 25.7542 48.6506 25.3436 49.1016 24.7723L47.5319 23.5331C47.3437 23.7714 47.052 23.993 46.6002 24.1693L47.3273 26.0324ZM49.1016 24.7723C49.5634 24.1874 49.7962 23.5029 49.7962 22.7571H47.7962C47.7962 23.0624 47.7093 23.3083 47.5319 23.5331L49.1016 24.7723ZM49.7962 22.7571C49.7962 22.053 49.5803 21.3997 49.1129 20.8639L47.6058 22.1787C47.7209 22.3106 47.7962 22.4811 47.7962 22.7571H49.7962ZM49.1209 20.8732C48.7054 20.3849 48.1388 20.0218 47.4919 19.7481L46.7126 21.59C47.1737 21.7851 47.4452 21.9901 47.5978 22.1694L49.1209 20.8732ZM47.4962 19.7499C46.8826 19.4869 46.1545 19.2581 45.3231 19.0577L44.8544 21.002C45.614 21.1851 46.2282 21.3824 46.7084 21.5882L47.4962 19.7499ZM45.3323 19.0599L42.9566 18.4634L42.4695 20.4031L44.8452 20.9997L45.3323 19.0599ZM42.9494 18.4616C41.2196 18.0408 39.9315 17.4012 39.022 16.5888L37.6896 18.0803C38.9109 19.1713 40.5275 19.9308 42.4767 20.4049L42.9494 18.4616ZM39.022 16.5888C38.199 15.8535 37.7624 14.8599 37.7685 13.493L35.7685 13.4842C35.7603 15.3418 36.382 16.9121 37.6896 18.0803L39.022 16.5888ZM37.7685 13.4833C37.7624 12.3544 38.0589 11.4109 38.6349 10.6103L37.0114 9.44228C36.1669 10.6161 35.7603 11.9808 35.7685 13.494L37.7685 13.4833ZM38.6321 10.6141C39.2339 9.78592 40.0705 9.12014 41.1793 8.62873L40.369 6.80025C38.9778 7.4168 37.847 8.29221 37.0142 9.43845L38.6321 10.6141ZM41.1793 8.62873C42.2825 8.1398 43.5615 7.88352 45.0355 7.88352V5.88352C43.3277 5.88352 41.7658 6.18122 40.369 6.80025L41.1793 8.62873ZM45.0355 7.88352C46.5418 7.88352 47.8074 8.1411 48.8585 8.62338L49.6926 6.80559C48.329 6.17992 46.7679 5.88352 45.0355 5.88352V7.88352ZM48.8606 8.62431C49.9291 9.1117 50.7235 9.77078 51.2838 10.5905L52.935 9.46202C52.1458 8.30734 51.051 7.42524 49.6906 6.80467L48.8606 8.62431ZM51.2838 10.5905C51.8384 11.402 52.1352 12.3513 52.1535 13.4731L54.1533 13.4403C54.1291 11.9626 53.7298 10.625 52.935 9.46202L51.2838 10.5905ZM53.1534 12.4567H48.7322V14.4567H53.1534V12.4567ZM56.4693 29H55.4693V30H56.4693V29ZM56.4693 12.6364V11.6364H55.4693V12.6364H56.4693ZM60.7946 12.6364H61.7946V11.6364H60.7946V12.6364ZM60.7946 15.5234H59.7946V16.5234H60.7946V15.5234ZM60.9863 15.5234V16.5234H61.6921L61.9285 15.8584L60.9863 15.5234ZM62.6909 13.2543L62.1194 12.4337L62.1194 12.4337L62.6909 13.2543ZM68.4118 13.2649L67.8319 14.0797L67.8368 14.0831L68.4118 13.2649ZM69.9885 15.5234L69.0245 15.7896L69.2272 16.5234H69.9885V15.5234ZM70.1589 15.5234V16.5234H70.8644L71.101 15.8589L70.1589 15.5234ZM71.97 13.2756L72.5104 14.117L72.5121 14.1159L71.97 13.2756ZM78.8095 13.8828L78.0946 14.5821L78.0998 14.5873L78.8095 13.8828ZM80.2477 29V30H81.2477V29H80.2477ZM75.72 29H74.72V30H75.72V29ZM74.9956 16.8445L74.3102 17.5727L74.9956 16.8445ZM71.2562 16.951L72.0031 17.616L72.0075 17.6109L71.2562 16.951ZM70.5637 29V30H71.5637V29H70.5637ZM66.1639 29H65.1639V30H66.1639V29ZM65.4714 16.8764L64.7483 17.5672L64.7537 17.5727L65.4714 16.8764ZM62.3074 16.5462L62.8374 17.3942L62.8413 17.3917L62.3074 16.5462ZM61.3592 17.6009L62.245 18.0649L62.248 18.0591L61.3592 17.6009ZM61.0076 29V30H62.0076V29H61.0076ZM57.4693 29V12.6364H55.4693V29H57.4693ZM56.4693 13.6364H60.7946V11.6364H56.4693V13.6364ZM59.7946 12.6364V15.5234H61.7946V12.6364H59.7946ZM60.7946 16.5234H60.9863V14.5234H60.7946V16.5234ZM61.9285 15.8584C62.2033 15.0858 62.647 14.5035 63.2624 14.0749L62.1194 12.4337C61.1439 13.113 60.4512 14.0435 60.0441 15.1884L61.9285 15.8584ZM63.2624 14.0749C63.8669 13.6538 64.6121 13.4233 65.546 13.4233V11.4233C64.2639 11.4233 63.1057 11.7467 62.1194 12.4337L63.2624 14.0749ZM65.546 13.4233C66.4946 13.4233 67.2388 13.6575 67.8319 14.0796L68.9916 12.4502C68.008 11.7501 66.8417 11.4233 65.546 11.4233V13.4233ZM67.8368 14.0831C68.4304 14.5002 68.8218 15.0554 69.0245 15.7896L70.9524 15.2573C70.6295 14.088 69.9698 13.1376 68.9867 12.4467L67.8368 14.0831ZM69.9885 16.5234H70.1589V14.5234H69.9885V16.5234ZM71.101 15.8589C71.3572 15.1393 71.8143 14.564 72.5104 14.117L71.4296 12.4342C70.3785 13.1093 69.6283 14.0326 69.2169 15.188L71.101 15.8589ZM72.5121 14.1159C73.2087 13.6665 74.0548 13.4233 75.0914 13.4233V11.4233C73.7275 11.4233 72.4926 11.7483 71.4279 12.4353L72.5121 14.1159ZM75.0914 13.4233C76.3853 13.4233 77.3548 13.8257 78.0946 14.582L79.5244 13.1836C78.3608 11.9939 76.8515 11.4233 75.0914 11.4233V13.4233ZM78.0998 14.5873C78.821 15.3139 79.2477 16.3998 79.2477 17.995H81.2477C81.2477 16.0391 80.7155 14.3835 79.5192 13.1783L78.0998 14.5873ZM79.2477 17.995V29H81.2477V17.995H79.2477ZM80.2477 28H75.72V30H80.2477V28ZM76.72 29V18.8899H74.72V29H76.72ZM76.72 18.8899C76.72 17.8107 76.4304 16.8216 75.6809 16.1163L74.3102 17.5727C74.5266 17.7764 74.72 18.151 74.72 18.8899H76.72ZM75.6809 16.1163C74.9946 15.4703 74.138 15.1626 73.1845 15.1626V17.1626C73.6798 17.1626 74.0306 17.3095 74.3102 17.5727L75.6809 16.1163ZM73.1845 15.1626C72.1292 15.1626 71.1906 15.5104 70.5049 16.2911L72.0075 17.6109C72.2451 17.3405 72.5921 17.1626 73.1845 17.1626V15.1626ZM70.5094 16.286C69.8497 17.0269 69.5637 17.9679 69.5637 19.0071H71.5637C71.5637 18.3417 71.7395 17.912 72.0031 17.616L70.5094 16.286ZM69.5637 19.0071V29H71.5637V19.0071H69.5637ZM70.5637 28H66.1639V30H70.5637V28ZM67.1639 29V18.794H65.1639V29H67.1639ZM67.1639 18.794C67.1639 17.7896 66.8686 16.8805 66.1892 16.1801L64.7537 17.5727C64.9975 17.8241 65.1639 18.1933 65.1639 18.794H67.1639ZM66.1945 16.1857C65.5254 15.4852 64.65 15.1626 63.671 15.1626V17.1626C64.1835 17.1626 64.5084 17.316 64.7483 17.5672L66.1945 16.1857ZM63.671 15.1626C62.9882 15.1626 62.3467 15.3386 61.7734 15.7007L62.8413 17.3917C63.0777 17.2424 63.3452 17.1626 63.671 17.1626V15.1626ZM61.7774 15.6982C61.2135 16.0505 60.7795 16.5431 60.4704 17.1426L62.248 18.0591C62.4077 17.7495 62.6057 17.5389 62.8373 17.3942L61.7774 15.6982ZM60.4734 17.1368C60.1507 17.7529 60.0076 18.4436 60.0076 19.1776H62.0076C62.0076 18.7041 62.099 18.3437 62.245 18.0649L60.4734 17.1368ZM60.0076 19.1776V29H62.0076V19.1776H60.0076ZM61.0076 28H56.4693V30H61.0076V28ZM85.7076 28.7656L85.2955 29.6768L85.3022 29.6798L85.7076 28.7656ZM83.7686 27.1357L82.929 27.6789L82.9353 27.6884L83.7686 27.1357ZM83.5662 22.1392L82.6864 21.6639L83.5662 22.1392ZM84.9299 20.6477L84.3823 19.8109L84.9299 20.6477ZM86.8901 19.7955L86.6388 18.8275L86.6365 18.8281L86.8901 19.7955ZM89.2125 19.3906L89.3086 20.386L89.3164 20.3852L89.2125 19.3906ZM91.5137 19.1136L91.6585 20.1032L91.6703 20.1013L91.5137 19.1136ZM92.7814 18.7088L92.2216 17.8802V17.8802L92.7814 18.7088ZM92.5364 16.2905L91.8752 17.0407L91.8815 17.0462L92.5364 16.2905ZM88.7971 16.2798L89.3895 17.0855L89.3971 17.0798L88.7971 16.2798ZM87.8382 17.6222L87.7573 18.6189L88.5716 18.685L88.7988 17.9002L87.8382 17.6222ZM83.6408 17.2812L82.663 17.0717L82.4243 18.1857L83.5599 18.278L83.6408 17.2812ZM84.8979 14.7031L85.6551 15.3564L85.6582 15.3527L84.8979 14.7031ZM87.3162 13.0199L87.6842 13.9497L87.6876 13.9484L87.3162 13.0199ZM93.378 12.7429L93.1296 13.7116L93.1316 13.7121L93.378 12.7429ZM95.6046 13.7337L95.0354 14.5559L95.0396 14.5588L95.6046 13.7337ZM97.1493 15.4595L96.2677 15.9315L96.2697 15.9352L97.1493 15.4595ZM97.714 29V30H98.714V29H97.714ZM93.41 29H92.41V30H93.41V29ZM93.41 26.7308H94.41V25.7308H93.41V26.7308ZM93.2821 26.7308V25.7308H92.6717L92.3927 26.2738L93.2821 26.7308ZM92.2275 28.0838L92.8843 28.8379L92.8911 28.8319L92.2275 28.0838ZM90.6401 28.9893L90.9661 29.9348L90.9757 29.9313L90.6401 28.9893ZM91.5669 25.7827L92.024 26.6722L92.0337 26.6671L91.5669 25.7827ZM92.7708 24.696L91.9287 24.1566L92.7708 24.696ZM93.2076 21.4148H94.2076V19.5721L92.6626 20.5763L93.2076 21.4148ZM92.6216 21.6705L92.9038 22.6298L92.9126 22.6272L92.9215 22.6244L92.6216 21.6705ZM91.8013 21.8729L91.9842 22.856L91.9952 22.854L92.0062 22.8517L91.8013 21.8729ZM90.8851 22.0327L91.0233 23.0231L91.0346 23.0215L91.0458 23.0197L90.8851 22.0327ZM90.0542 22.1499L89.9127 21.1599L89.909 21.1604L90.0542 22.1499ZM88.6586 22.5227L89.0525 23.4419L88.6586 22.5227ZM87.7317 23.2152L88.5222 23.8278L88.5294 23.8183L87.7317 23.2152ZM88.0726 25.6974L87.4829 26.5051L87.4901 26.5103L87.4974 26.5155L88.0726 25.6974ZM88.4988 28.3089C87.5711 28.3089 86.7824 28.1483 86.113 27.8515L85.3022 29.6798C86.2663 30.1073 87.3384 30.3089 88.4988 30.3089V28.3089ZM86.1196 27.8544C85.4667 27.5592 84.9694 27.1368 84.602 26.5829L82.9353 27.6884C83.5195 28.5691 84.3149 29.2334 85.2956 29.6768L86.1196 27.8544ZM84.6082 26.5924C84.2677 26.0661 84.0655 25.3648 84.0655 24.4297H82.0655C82.0655 25.6537 82.3321 26.7563 82.9291 27.6789L84.6082 26.5924ZM84.0655 24.4297C84.0655 23.6391 84.211 23.0497 84.446 22.6145L82.6864 21.6639C82.2539 22.4645 82.0655 23.4021 82.0655 24.4297H84.0655ZM84.446 22.6145C84.7026 22.1396 85.0443 21.7679 85.4774 21.4845L84.3823 19.8109C83.6649 20.2804 83.0974 20.903 82.6864 21.6639L84.446 22.6145ZM85.4774 21.4845C85.9538 21.1728 86.5061 20.9299 87.1437 20.7628L86.6365 18.8281C85.811 19.0445 85.0565 19.3698 84.3823 19.8109L85.4774 21.4845ZM87.1414 20.7634C87.8259 20.5857 88.5479 20.4594 89.3086 20.386L89.1165 18.3952C88.2579 18.4781 87.4316 18.6217 86.6388 18.8275L87.1414 20.7634ZM89.3164 20.3852C90.2745 20.2851 91.0568 20.1911 91.6585 20.1031L91.3689 18.1242C90.8058 18.2066 90.054 18.2973 89.1086 18.396L89.3164 20.3852ZM91.6703 20.1013C92.2938 20.0024 92.8933 19.8401 93.3413 19.5374L92.2216 17.8802C92.144 17.9326 91.8983 18.0402 91.3571 18.126L91.6703 20.1013ZM93.3413 19.5374C93.9094 19.1535 94.1756 18.5626 94.1756 17.9205H92.1756C92.1756 17.9447 92.1733 17.9553 92.1733 17.9552C92.1735 17.9545 92.1756 17.9454 92.1826 17.9313C92.1898 17.917 92.1991 17.9035 92.2088 17.8927C92.2182 17.8821 92.2241 17.8785 92.2216 17.8802L93.3413 19.5374ZM94.1756 17.9205V17.8565H92.1756V17.9205H94.1756ZM94.1756 17.8565C94.1756 16.9543 93.8798 16.1315 93.1913 15.5348L91.8815 17.0462C92.0453 17.1881 92.1756 17.4093 92.1756 17.8565H94.1756ZM93.1976 15.5403C92.536 14.9571 91.6703 14.7365 90.7466 14.7365V16.7365C91.3713 16.7365 91.6988 16.8852 91.8752 17.0407L93.1976 15.5403ZM90.7466 14.7365C89.7889 14.7365 88.905 14.9488 88.1971 15.4798L89.3971 17.0798C89.655 16.8864 90.0708 16.7365 90.7466 16.7365V14.7365ZM88.2047 15.4742C87.5569 15.9505 87.0994 16.5781 86.8777 17.3441L88.7988 17.9002C88.8896 17.5867 89.0713 17.3194 89.3894 17.0855L88.2047 15.4742ZM87.9192 16.6254L83.7218 16.2845L83.5599 18.278L87.7573 18.6189L87.9192 16.6254ZM84.6186 17.4908C84.7988 16.6499 85.1466 15.9457 85.6551 15.3564L84.1407 14.0499C83.3992 14.9094 82.9089 15.924 82.663 17.0717L84.6186 17.4908ZM85.6582 15.3527C86.1666 14.7576 86.8326 14.2867 87.6842 13.9497L86.9483 12.09C85.8254 12.5344 84.8792 13.1855 84.1376 14.0536L85.6582 15.3527ZM87.6876 13.9484C88.5409 13.607 89.5611 13.4233 90.7679 13.4233V11.4233C89.3611 11.4233 88.0802 11.6373 86.9448 12.0914L87.6876 13.9484ZM90.7679 13.4233C91.5982 13.4233 92.3845 13.5205 93.1296 13.7116L93.6264 11.7742C92.7096 11.5392 91.7558 11.4233 90.7679 11.4233V13.4233ZM93.1316 13.7121C93.8657 13.8987 94.4964 14.1827 95.0354 14.5559L96.1738 12.9115C95.4202 12.3897 94.5664 12.0132 93.6244 11.7737L93.1316 13.7121ZM95.0396 14.5588C95.5597 14.9149 95.9664 15.3687 96.2677 15.9315L98.0309 14.9875C97.5794 14.1441 96.9563 13.4473 96.1696 12.9086L95.0396 14.5588ZM96.2697 15.9352C96.551 16.4552 96.714 17.1185 96.714 17.9631H98.714C98.714 16.8616 98.5005 15.8558 98.0289 14.9838L96.2697 15.9352ZM96.714 17.9631V29H98.714V17.9631H96.714ZM97.714 28H93.41V30H97.714V28ZM94.41 29V26.7308H92.41V29H94.41ZM93.41 25.7308H93.2821V27.7308H93.41V25.7308ZM92.3927 26.2738C92.1879 26.6723 91.9138 27.0253 91.5638 27.3357L92.8911 28.8319C93.4218 28.3611 93.8508 27.812 94.1716 27.1879L92.3927 26.2738ZM91.5707 27.3297C91.2356 27.6216 90.8189 27.864 90.3044 28.0474L90.9757 29.9313C91.697 29.6743 92.3386 29.3131 92.8842 28.8379L91.5707 27.3297ZM90.3141 28.044C89.8227 28.2134 89.2229 28.3089 88.4988 28.3089V30.3089C89.3939 30.3089 90.2217 30.1914 90.9661 29.9347L90.3141 28.044ZM89.7985 27.1768C90.5994 27.1768 91.3501 27.0184 92.024 26.6721L91.1099 24.8932C90.7611 25.0725 90.3328 25.1768 89.7985 25.1768V27.1768ZM92.0337 26.6671C92.6866 26.3225 93.2218 25.8458 93.6128 25.2355L91.9287 24.1566C91.7374 24.4553 91.47 24.7031 91.1002 24.8983L92.0337 26.6671ZM93.6128 25.2355C94.014 24.6092 94.2076 23.9046 94.2076 23.1513H92.2076C92.2076 23.5485 92.1099 23.8738 91.9287 24.1566L93.6128 25.2355ZM94.2076 23.1513V21.4148H92.2076V23.1513H94.2076ZM92.6626 20.5763C92.6259 20.6002 92.5249 20.6526 92.3218 20.7165L92.9215 22.6244C93.2155 22.532 93.5052 22.414 93.7526 22.2532L92.6626 20.5763ZM92.3395 20.7111C92.1287 20.7731 91.8817 20.8344 91.5965 20.8941L92.0062 22.8517C92.3317 22.7835 92.6316 22.7099 92.9038 22.6298L92.3395 20.7111ZM91.6184 20.8897C91.3204 20.9452 91.0224 20.9972 90.7244 21.0457L91.0458 23.0197C91.3587 22.9687 91.6715 22.9142 91.9842 22.856L91.6184 20.8897ZM90.7469 21.0423C90.4407 21.085 90.1626 21.1242 89.9127 21.1599L90.1956 23.1398C90.4429 23.1045 90.7188 23.0656 91.0233 23.0231L90.7469 21.0423ZM89.909 21.1604C89.3106 21.2482 88.7585 21.3919 88.2646 21.6036L89.0525 23.4419C89.3541 23.3126 89.7323 23.2078 90.1993 23.1393L89.909 21.1604ZM88.2646 21.6036C87.7369 21.8298 87.277 22.1586 86.9341 22.6121L88.5294 23.8183C88.6268 23.6894 88.7848 23.5566 89.0525 23.4419L88.2646 21.6036ZM86.9413 22.6026C86.5613 23.093 86.4015 23.6753 86.4015 24.2805H88.4015C88.4015 24.0335 88.4618 23.9056 88.5221 23.8278L86.9413 22.6026ZM86.4015 24.2805C86.4015 25.1752 86.7451 25.9663 87.4829 26.5051L88.6623 24.8898C88.5052 24.7751 88.4015 24.6217 88.4015 24.2805H86.4015ZM87.4974 26.5155C88.1587 26.9804 88.9489 27.1768 89.7985 27.1768V25.1768C89.256 25.1768 88.8956 25.0537 88.6478 24.8794L87.4974 26.5155ZM101.235 29H100.235V30H101.235V29ZM101.235 12.6364V11.6364H100.235V12.6364H101.235ZM105.635 12.6364H106.635V11.6364H105.635V12.6364ZM105.635 15.4915H104.635V16.4915H105.635V15.4915ZM105.805 15.4915V16.4915H106.554L106.765 15.7733L105.805 15.4915ZM107.307 13.1903L107.901 13.9952L107.906 13.9913L107.307 13.1903ZM110.471 12.4446L110.579 11.4504V11.4504L110.471 12.4446ZM111.164 12.5618H112.164V11.781L111.406 11.5916L111.164 12.5618ZM111.164 16.5888L110.877 17.5466L112.164 17.9328V16.5888H111.164ZM107.456 16.7805L107.937 17.6575L107.941 17.6553L107.456 16.7805ZM106.221 17.9737L105.362 17.461L105.357 17.4699L106.221 17.9737ZM105.773 29V30H106.773V29H105.773ZM102.235 29V12.6364H100.235V29H102.235ZM101.235 13.6364H105.635V11.6364H101.235V13.6364ZM104.635 12.6364V15.4915H106.635V12.6364H104.635ZM105.635 16.4915H105.805V14.4915H105.635V16.4915ZM106.765 15.7733C107.015 14.9217 107.408 14.3584 107.901 13.9952L106.714 12.3855C105.8 13.0592 105.192 14.03 104.846 15.2097L106.765 15.7733ZM107.906 13.9913C108.428 13.6009 109.026 13.402 109.736 13.402V11.402C108.614 11.402 107.593 11.7287 106.709 12.3894L107.906 13.9913ZM109.736 13.402C109.922 13.402 110.131 13.4137 110.364 13.4388L110.579 11.4504C110.286 11.4187 110.005 11.402 109.736 11.402V13.402ZM110.364 13.4388C110.593 13.4636 110.777 13.496 110.921 13.5319L111.406 11.5916C111.153 11.5282 110.875 11.4824 110.579 11.4504L110.364 13.4388ZM110.164 12.5618V16.5888H112.164V12.5618H110.164ZM111.451 15.631C111.164 15.5447 110.809 15.4795 110.411 15.4269L110.149 17.4097C110.504 17.4566 110.738 17.505 110.877 17.5466L111.451 15.631ZM110.411 15.4269C110 15.3727 109.611 15.3438 109.246 15.3438V17.3438C109.507 17.3438 109.807 17.3646 110.149 17.4097L110.411 15.4269ZM109.246 15.3438C108.428 15.3438 107.662 15.5236 106.972 15.9058L107.941 17.6553C108.302 17.4551 108.729 17.3438 109.246 17.3438V15.3438ZM106.976 15.9036C106.3 16.2739 105.758 16.7979 105.362 17.461L107.079 18.4865C107.294 18.1268 107.576 17.8554 107.937 17.6575L106.976 15.9036ZM105.357 17.4699C104.958 18.1529 104.773 18.9206 104.773 19.7422H106.773C106.773 19.2285 106.886 18.8172 107.084 18.4776L105.357 17.4699ZM104.773 19.7422V29H106.773V19.7422H104.773ZM105.773 28H101.235V30H105.773V28ZM123.034 12.6364H124.034V11.6364H123.034V12.6364ZM123.034 16.0455V17.0455H124.034V16.0455H123.034ZM113.18 16.0455H112.18V17.0455H113.18V16.0455ZM113.18 12.6364V11.6364H112.18V12.6364H113.18ZM115.417 8.71591V7.71591H114.417V8.71591H115.417ZM119.956 8.71591H120.956V7.71591H119.956V8.71591ZM120.147 24.9517L119.269 25.4306L119.276 25.442L120.147 24.9517ZM120.68 25.4311L120.304 26.3576L120.314 26.3615L120.68 25.4311ZM122.129 25.5163L122.293 26.5027L122.309 26.5001L122.325 26.4969L122.129 25.5163ZM122.619 25.4205L123.597 25.2137L123.395 24.2575L122.435 24.4376L122.619 25.4205ZM123.333 28.7976L123.631 29.7521L124.499 29.4807L124.311 28.5908L123.333 28.7976ZM122.374 29.0426L122.155 28.0668L122.147 28.0686L122.139 28.0705L122.374 29.0426ZM120.872 29.2237L120.836 28.2244L120.833 28.2245L120.872 29.2237ZM117.995 28.7869L117.617 29.7126L117.62 29.7137L117.995 28.7869ZM116.088 27.2315L116.928 26.6886L116.088 27.2315ZM115.417 24.5682L116.417 24.5748V24.5682H115.417ZM122.034 12.6364V16.0455H124.034V12.6364H122.034ZM123.034 15.0455H113.18V17.0455H123.034V15.0455ZM114.18 16.0455V12.6364H112.18V16.0455H114.18ZM113.18 13.6364H123.034V11.6364H113.18V13.6364ZM115.417 9.71591H119.956V7.71591H115.417V9.71591ZM118.956 8.71591V23.9716H120.956V8.71591H118.956ZM118.956 23.9716C118.956 24.4717 119.028 24.9887 119.269 25.4306L121.025 24.4729C121.011 24.446 120.956 24.3096 120.956 23.9716H118.956ZM119.276 25.442C119.507 25.8531 119.853 26.1745 120.304 26.3576L121.056 24.5046C121.051 24.5024 121.048 24.5009 121.048 24.5004C121.047 24.4999 121.046 24.4995 121.045 24.4987C121.045 24.4979 121.034 24.4889 121.019 24.4614L119.276 25.442ZM120.314 26.3615C120.687 26.5085 121.085 26.5696 121.49 26.5696V24.5696C121.284 24.5696 121.142 24.5384 121.047 24.5007L120.314 26.3615ZM121.49 26.5696C121.759 26.5696 122.027 26.5472 122.293 26.5027L121.965 24.5299C121.805 24.5565 121.647 24.5696 121.49 24.5696V26.5696ZM122.325 26.4969C122.537 26.4545 122.696 26.4235 122.803 26.4033L122.435 24.4376C122.315 24.46 122.147 24.4929 121.933 24.5358L122.325 26.4969ZM121.641 25.6272L122.354 29.0044L124.311 28.5908L123.597 25.2137L121.641 25.6272ZM123.034 27.8431C122.846 27.902 122.557 27.9767 122.155 28.0668L122.593 30.0184C123.014 29.9239 123.365 29.8352 123.631 29.7521L123.034 27.8431ZM122.139 28.0705C121.812 28.1495 121.382 28.2046 120.836 28.2244L120.908 30.2231C121.54 30.2002 122.112 30.1346 122.609 30.0147L122.139 28.0705ZM120.833 28.2245C119.849 28.2628 119.037 28.1298 118.371 27.8601L117.62 29.7137C118.602 30.1116 119.707 30.2699 120.911 30.223L120.833 28.2245ZM118.374 27.8613C117.735 27.6004 117.266 27.2104 116.928 26.6886L115.249 27.7744C115.82 28.6589 116.622 29.3058 117.617 29.7126L118.374 27.8613ZM116.928 26.6886C116.606 26.1895 116.411 25.5067 116.417 24.5748L114.417 24.5616C114.409 25.7746 114.662 26.8673 115.249 27.7744L116.928 26.6886ZM116.417 24.5682V8.71591H114.417V24.5682H116.417ZM144.677 7.18182H145.677V6.18182H144.677V7.18182ZM144.677 29V30H145.677V29H144.677ZM140.692 29L139.87 29.5686L140.168 30H140.692V29ZM131.2 15.2678L132.023 14.6991L131.725 14.2678H131.2V15.2678ZM131.04 15.2678V14.2678H130.04V15.2678H131.04ZM131.04 29V30H132.04V29H131.04ZM126.428 29H125.428V30H126.428V29ZM126.428 7.18182V6.18182H125.428V7.18182H126.428ZM130.476 7.18182L131.3 6.61594L131.002 6.18182H130.476V7.18182ZM139.893 20.9034L139.069 21.4693L139.367 21.9034H139.893V20.9034ZM140.085 20.9034V21.9034H141.085V20.9034H140.085ZM140.085 7.18182V6.18182H139.085V7.18182H140.085ZM143.677 7.18182V29H145.677V7.18182H143.677ZM144.677 28H140.692V30H144.677V28ZM141.515 28.4314L132.023 14.6991L130.378 15.8364L139.87 29.5686L141.515 28.4314ZM131.2 14.2678H131.04V16.2678H131.2V14.2678ZM130.04 15.2678V29H132.04V15.2678H130.04ZM131.04 28H126.428V30H131.04V28ZM127.428 29V7.18182H125.428V29H127.428ZM126.428 8.18182H130.476V6.18182H126.428V8.18182ZM129.651 7.74769L139.069 21.4693L140.718 20.3375L131.3 6.61594L129.651 7.74769ZM139.893 21.9034H140.085V19.9034H139.893V21.9034ZM141.085 20.9034V7.18182H139.085V20.9034H141.085ZM140.085 8.18182H144.677V6.18182H140.085V8.18182ZM151.503 28.2649L150.994 29.1256L151 29.1291L151.503 28.2649ZM148.722 25.3033L147.833 25.7604L147.834 25.7624L148.722 25.3033ZM148.722 16.4503L149.611 16.9094L149.612 16.9074L148.722 16.4503ZM151.503 13.4886L152.008 14.3515L152.01 14.3506L151.503 13.4886ZM160.079 13.4886L159.57 14.3493L159.576 14.3528L160.079 13.4886ZM162.87 16.4503L161.981 16.9074L161.982 16.9094L162.87 16.4503ZM162.87 25.3033L163.759 25.7624L163.76 25.7604L162.87 25.3033ZM160.079 28.2649L160.584 29.1278L160.586 29.1268L160.079 28.2649ZM157.703 25.1648L158.349 25.9286L158.355 25.9233L157.703 25.1648ZM158.843 23.3963L157.9 23.0639L157.897 23.072L158.843 23.3963ZM158.843 18.304L157.897 18.6283L157.9 18.6363L158.843 18.304ZM153.9 16.5355L153.259 15.7681L153.254 15.7725L153.9 16.5355ZM152.739 18.304L151.796 17.9716L151.793 17.9797L152.739 18.304ZM152.739 23.3963L151.793 23.7206L151.796 23.7287L152.739 23.3963ZM153.9 25.1648L153.254 25.9278L153.259 25.9326L153.265 25.9373L153.9 25.1648ZM155.796 28.3196C154.286 28.3196 153.035 27.9998 152.006 27.4008L151 29.1291C152.386 29.9363 153.997 30.3196 155.796 30.3196V28.3196ZM152.012 27.4043C150.977 26.7917 150.18 25.9452 149.611 24.8441L147.834 25.7624C148.572 27.1898 149.629 28.3177 150.994 29.1255L152.012 27.4043ZM149.612 24.8461C149.043 23.7388 148.742 22.4267 148.742 20.8821H146.742C146.742 22.6898 147.095 24.3252 147.833 25.7604L149.612 24.8461ZM148.742 20.8821C148.742 19.3217 149.043 18.0074 149.611 16.9094L147.834 15.9911C147.095 17.4216 146.742 19.0619 146.742 20.8821H148.742ZM149.612 16.9074C150.181 15.8002 150.977 14.9558 152.008 14.3515L150.998 12.6258C149.629 13.4277 148.571 14.5578 147.833 15.9932L149.612 16.9074ZM152.01 14.3506C153.038 13.7459 154.287 13.4233 155.796 13.4233V11.4233C153.996 11.4233 152.383 11.8109 150.996 12.6267L152.01 14.3506ZM155.796 13.4233C157.306 13.4233 158.55 13.746 159.57 14.3493L160.588 12.628C159.207 11.8108 157.597 11.4233 155.796 11.4233V13.4233ZM159.576 14.3528C160.614 14.9575 161.413 15.8017 161.981 16.9074L163.76 15.9932C163.021 14.5562 161.959 13.426 160.582 12.6245L159.576 14.3528ZM161.982 16.9094C162.549 18.0074 162.85 19.3217 162.85 20.8821H164.85C164.85 19.0619 164.498 17.4216 163.759 15.9911L161.982 16.9094ZM162.85 20.8821C162.85 22.4267 162.55 23.7388 161.981 24.8461L163.76 25.7604C164.497 24.3252 164.85 22.6898 164.85 20.8821H162.85ZM161.982 24.8441C161.414 25.9436 160.614 26.79 159.572 27.403L160.586 29.1268C161.959 28.3194 163.02 27.1913 163.759 25.7624L161.982 24.8441ZM159.574 27.4021C158.553 27.9997 157.307 28.3196 155.796 28.3196V30.3196C157.595 30.3196 159.204 29.9364 160.584 29.1278L159.574 27.4021ZM155.818 26.804C156.772 26.804 157.639 26.5285 158.349 25.9286L157.058 24.401C156.759 24.6533 156.369 24.804 155.818 24.804V26.804ZM158.355 25.9233C159.017 25.3542 159.487 24.6032 159.789 23.7206L157.897 23.072C157.689 23.6809 157.398 24.1089 157.052 24.4063L158.355 25.9233ZM159.786 23.7287C160.094 22.8569 160.237 21.8927 160.237 20.8501H158.237C158.237 21.711 158.118 22.4442 157.9 23.064L159.786 23.7287ZM160.237 20.8501C160.237 19.8076 160.094 18.8434 159.786 17.9716L157.9 18.6363C158.118 19.2561 158.237 19.9893 158.237 20.8501H160.237ZM159.789 17.9797C159.487 17.0971 159.017 16.3461 158.355 15.777L157.052 17.294C157.398 17.5914 157.689 18.0194 157.897 18.6283L159.789 17.9797ZM158.355 15.777C157.645 15.1673 156.776 14.8857 155.818 14.8857V16.8857C156.365 16.8857 156.753 17.0373 157.052 17.294L158.355 15.777ZM155.818 14.8857C154.854 14.8857 153.98 15.1658 153.259 15.7682L154.541 17.3029C154.857 17.0387 155.261 16.8857 155.818 16.8857V14.8857ZM153.254 15.7725C152.584 16.3396 152.107 17.0889 151.796 17.9716L153.682 18.6363C153.896 18.0276 154.193 17.5979 154.546 17.2985L153.254 15.7725ZM151.793 17.9797C151.495 18.8488 151.355 19.8102 151.355 20.8501H153.355C153.355 19.9866 153.471 19.2506 153.685 18.6283L151.793 17.9797ZM151.355 20.8501C151.355 21.8901 151.495 22.8514 151.793 23.7206L153.685 23.072C153.471 22.4497 153.355 21.7136 153.355 20.8501H151.355ZM151.796 23.7287C152.107 24.6114 152.584 25.3607 153.254 25.9278L154.546 24.4018C154.193 24.1024 153.896 23.6727 153.682 23.064L151.796 23.7287ZM153.265 25.9373C153.986 26.5299 154.859 26.804 155.818 26.804V24.804C155.257 24.804 154.851 24.6519 154.535 24.3922L153.265 25.9373ZM169.454 28.3075L168.912 29.1478L168.919 29.1522L169.454 28.3075ZM167.068 25.4631L166.16 25.8834L166.163 25.8896L167.068 25.4631ZM167.1 16.1626L167.999 16.5995L168 16.5975L167.1 16.1626ZM169.507 13.3608L170.032 14.2118L170.034 14.2108L169.507 13.3608ZM175.111 12.892L174.655 13.7824L174.668 13.7885L175.111 12.892ZM176.602 14.0426L175.827 14.6746L175.833 14.6811L175.838 14.6875L176.602 14.0426ZM177.476 15.3849L176.565 15.7965L176.83 16.3849H177.476V15.3849ZM177.615 15.3849V16.3849H178.615V15.3849H177.615ZM177.615 7.18182V6.18182H176.615V7.18182H177.615ZM182.142 7.18182H183.142V6.18182H182.142V7.18182ZM182.142 29V30H183.142V29H182.142ZM177.668 29H176.668V30H177.668V29ZM177.668 26.3793H178.668V25.3793H177.668V26.3793ZM177.476 26.3793V25.3793H176.84L176.571 25.9548L177.476 26.3793ZM176.57 27.7322L175.817 27.0746L175.816 27.0755L176.57 27.7322ZM175.068 28.8295L174.642 27.925L174.638 27.9269L175.068 28.8295ZM176.123 25.0582L176.742 25.8434L176.744 25.8423L176.123 25.0582ZM177.295 23.3643L176.361 23.0072L176.358 23.0152L177.295 23.3643ZM177.306 18.2827L178.242 17.9305L177.306 18.2827ZM172.384 16.642L171.763 15.858L172.384 16.642ZM171.222 23.343L170.281 23.6811L170.285 23.6921L171.222 23.343ZM172.384 25.0476L171.751 25.822L171.757 25.8269L171.763 25.8316L172.384 25.0476ZM172.831 28.2663C171.77 28.2663 170.831 27.9963 169.989 27.4629L168.919 29.1522C170.094 29.8971 171.407 30.2663 172.831 30.2663V28.2663ZM169.996 27.4673C169.176 26.9376 168.495 26.145 167.972 25.0365L166.163 25.8896C166.819 27.2812 167.73 28.3848 168.912 29.1477L169.996 27.4673ZM167.975 25.0427C167.47 23.9522 167.194 22.5636 167.194 20.8395H165.194C165.194 22.7659 165.501 24.4598 166.16 25.8834L167.975 25.0427ZM167.194 20.8395C167.194 19.0646 167.481 17.6667 167.999 16.5995L166.2 15.7257C165.511 17.1444 165.194 18.8644 165.194 20.8395H167.194ZM168 16.5975C168.536 15.4879 169.22 14.7128 170.032 14.2118L168.982 12.5098C167.791 13.2446 166.871 14.3374 166.199 15.7277L168 16.5975ZM170.034 14.2108C170.882 13.685 171.804 13.4233 172.82 13.4233V11.4233C171.436 11.4233 170.149 11.7865 168.981 12.5108L170.034 14.2108ZM172.82 13.4233C173.629 13.4233 174.225 13.562 174.656 13.7823L175.566 12.0018C174.775 11.5971 173.844 11.4233 172.82 11.4233V13.4233ZM174.668 13.7885C175.178 14.0404 175.555 14.3399 175.827 14.6746L177.377 13.4107C176.897 12.822 176.28 12.3545 175.554 11.9956L174.668 13.7885ZM175.838 14.6875C176.175 15.087 176.411 15.4571 176.565 15.7965L178.387 14.9734C178.143 14.4321 177.797 13.9073 177.367 13.3977L175.838 14.6875ZM177.476 16.3849H177.615V14.3849H177.476V16.3849ZM178.615 15.3849V7.18182H176.615V15.3849H178.615ZM177.615 8.18182H182.142V6.18182H177.615V8.18182ZM181.142 7.18182V29H183.142V7.18182H181.142ZM182.142 28H177.668V30H182.142V28ZM178.668 29V26.3793H176.668V29H178.668ZM177.668 25.3793H177.476V27.3793H177.668V25.3793ZM176.571 25.9548C176.404 26.3111 176.157 26.6849 175.817 27.0746L177.324 28.3899C177.765 27.8847 178.122 27.3565 178.381 26.8037L176.571 25.9548ZM175.816 27.0755C175.538 27.3952 175.156 27.6829 174.642 27.925L175.495 29.7341C176.217 29.3938 176.836 28.95 177.325 28.389L175.816 27.0755ZM174.638 27.9269C174.196 28.1377 173.606 28.2663 172.831 28.2663V30.2663C173.818 30.2663 174.719 30.1038 175.499 29.7322L174.638 27.9269ZM174.269 26.6548C175.193 26.6548 176.037 26.3993 176.742 25.8434L175.504 24.2731C175.2 24.5126 174.809 24.6548 174.269 24.6548V26.6548ZM176.744 25.8423C177.423 25.3046 177.91 24.577 178.232 23.7135L176.358 23.0152C176.14 23.6005 175.846 24.0022 175.502 24.2742L176.744 25.8423ZM178.229 23.7215C178.559 22.8581 178.71 21.8834 178.71 20.8182H176.71C176.71 21.699 176.585 22.4217 176.361 23.0072L178.229 23.7215ZM178.71 20.8182C178.71 19.7559 178.563 18.7862 178.242 17.9305L176.37 18.6348C176.587 19.2138 176.71 19.9344 176.71 20.8182H178.71ZM178.242 17.9305C177.918 17.0717 177.427 16.3506 176.741 15.8261L175.527 17.4154C175.863 17.6721 176.153 18.059 176.37 18.6348L178.242 17.9305ZM176.741 15.8261C176.032 15.2844 175.189 15.0348 174.269 15.0348V17.0348C174.813 17.0348 175.213 17.1759 175.527 17.4154L176.741 15.8261ZM174.269 15.0348C173.332 15.0348 172.476 15.2936 171.763 15.858L173.004 17.4261C173.314 17.1808 173.715 17.0348 174.269 17.0348V15.0348ZM171.763 15.858C171.084 16.3957 170.599 17.1208 170.284 17.9813L172.161 18.6693C172.372 18.0951 172.661 17.698 173.004 17.4261L171.763 15.858ZM170.284 17.9813C169.972 18.8314 169.828 19.783 169.828 20.8182H171.828C171.828 19.9642 171.947 19.2538 172.161 18.6693L170.284 17.9813ZM169.828 20.8182C169.828 21.8602 169.972 22.8199 170.281 23.6811L172.164 23.005C171.947 22.4031 171.828 21.6796 171.828 20.8182H169.828ZM170.285 23.6921C170.606 24.5515 171.086 25.2784 171.751 25.822L173.016 24.2731C172.673 23.9929 172.379 23.5834 172.16 22.9939L170.285 23.6921ZM171.763 25.8316C172.476 26.396 173.332 26.6548 174.269 26.6548V24.6548C173.715 24.6548 173.314 24.5088 173.004 24.2635L171.763 25.8316ZM188.984 28.2969L188.489 29.1655L188.495 29.1689L188.984 28.2969ZM186.193 25.3778L185.305 25.837L185.306 25.839L186.193 25.3778ZM186.193 16.4609L185.304 16.0038L186.193 16.4609ZM188.952 13.4886L188.441 12.6293L188.439 12.6307L188.952 13.4886ZM196.165 12.9453L195.814 13.882L195.823 13.8851L196.165 12.9453ZM198.615 14.4901L197.912 15.2008L197.915 15.2043L198.615 14.4901ZM200.256 17.0895L199.319 17.4399L199.32 17.442L200.256 17.0895ZM200.842 21.9794V22.9794H201.842V21.9794H200.842ZM187.024 21.9794H186.024V22.9794H187.024V21.9794ZM187.024 19.1669V18.1669H186.024V19.1669H187.024ZM196.57 19.1669V20.1669H197.57V19.1669H196.57ZM196.143 17.4304L195.272 17.9212L196.143 17.4304ZM194.961 16.2479L194.456 17.1108L194.463 17.115L194.47 17.1191L194.961 16.2479ZM191.392 16.2905L191.903 17.15L191.907 17.148L191.392 16.2905ZM190.156 17.5582L191.026 18.0519L191.029 18.0468L190.156 17.5582ZM189.698 19.3161L188.698 19.3051V19.3161H189.698ZM190.146 24.0888L189.253 24.5403L189.258 24.5488L190.146 24.0888ZM194.79 25.7188L194.469 24.7717L194.79 25.7188ZM195.866 25.0795L195.177 24.3554L195.866 25.0795ZM196.548 24.0355L196.614 23.0377L195.876 22.989L195.613 23.6809L196.548 24.0355ZM200.746 24.3125L201.724 24.5192L201.963 23.3906L200.812 23.3147L200.746 24.3125ZM199.435 26.9545L198.684 26.295L198.683 26.2955L199.435 26.9545ZM196.9 28.7017L197.271 29.6302L197.275 29.6289L196.9 28.7017ZM193.331 28.3196C191.784 28.3196 190.511 28.0069 189.474 27.4249L188.495 29.1689C189.887 29.9505 191.512 30.3196 193.331 30.3196V28.3196ZM189.48 27.4283C188.443 26.8366 187.647 26.0066 187.08 24.9166L185.306 25.839C186.046 27.2633 187.111 28.3793 188.489 29.1654L189.48 27.4283ZM187.082 24.9187C186.516 23.8235 186.213 22.4924 186.213 20.8928H184.213C184.213 22.7448 184.564 24.4037 185.305 25.837L187.082 24.9187ZM186.213 20.8928C186.213 19.3404 186.514 18.0249 187.083 16.9181L185.304 16.0038C184.566 17.4396 184.213 19.0787 184.213 20.8928H186.213ZM187.083 16.9181C187.654 15.8069 188.446 14.9575 189.466 14.3466L188.439 12.6307C187.087 13.4402 186.039 14.5724 185.304 16.0038L187.083 16.9181ZM189.464 14.3479C190.48 13.7434 191.696 13.4233 193.15 13.4233V11.4233C191.393 11.4233 189.812 11.8135 188.441 12.6293L189.464 14.3479ZM193.15 13.4233C194.12 13.4233 195.005 13.5793 195.814 13.8819L196.515 12.0087C195.463 11.6153 194.339 11.4233 193.15 11.4233V13.4233ZM195.823 13.8851C196.627 14.1776 197.32 14.6154 197.912 15.2008L199.319 13.7793C198.518 12.9869 197.577 12.3948 196.507 12.0055L195.823 13.8851ZM197.915 15.2043C198.501 15.778 198.973 16.5148 199.319 17.4399L201.192 16.7391C200.757 15.5761 200.136 14.58 199.315 13.7758L197.915 15.2043ZM199.32 17.442C199.659 18.3415 199.842 19.4317 199.842 20.733H201.842C201.842 19.2501 201.634 17.9113 201.191 16.737L199.32 17.442ZM199.842 20.733V21.9794H201.842V20.733H199.842ZM200.842 20.9794H187.024V22.9794H200.842V20.9794ZM188.024 21.9794V19.1669H186.024V21.9794H188.024ZM187.024 20.1669H196.57V18.1669H187.024V20.1669ZM197.57 19.1669C197.57 18.3641 197.394 17.6121 197.015 16.9396L195.272 17.9212C195.461 18.2572 195.57 18.6629 195.57 19.1669H197.57ZM197.015 16.9396C196.641 16.2761 196.115 15.7504 195.452 15.3766L194.47 17.1191C194.815 17.3135 195.078 17.5761 195.272 17.9212L197.015 16.9396ZM195.466 15.385C194.795 14.9915 194.036 14.8111 193.224 14.8111V16.8111C193.734 16.8111 194.133 16.9218 194.456 17.1108L195.466 15.385ZM193.224 14.8111C192.375 14.8111 191.582 15.0102 190.878 15.433L191.907 17.148C192.267 16.9316 192.696 16.8111 193.224 16.8111V14.8111ZM190.881 15.4309C190.205 15.8331 189.668 16.3835 189.284 17.0696L191.029 18.0468C191.241 17.6677 191.528 17.3729 191.903 17.15L190.881 15.4309ZM189.287 17.0646C188.899 17.7477 188.707 18.5016 188.698 19.3051L190.698 19.327C190.703 18.8379 190.817 18.4199 191.026 18.0518L189.287 17.0646ZM188.698 19.3161V21.9901H190.698V19.3161H188.698ZM188.698 21.9901C188.698 22.9218 188.87 23.7828 189.253 24.5403L191.038 23.6373C190.825 23.2158 190.698 22.6777 190.698 21.9901H188.698ZM189.258 24.5488C189.647 25.3012 190.209 25.8997 190.935 26.3186L191.934 24.5862C191.552 24.3659 191.255 24.0554 191.034 23.6288L189.258 24.5488ZM190.935 26.3186C191.667 26.7411 192.503 26.9318 193.406 26.9318V24.9318C192.788 24.9318 192.31 24.803 191.934 24.5862L190.935 26.3186ZM193.406 26.9318C194.004 26.9318 194.576 26.8474 195.112 26.6658L194.469 24.7717C194.167 24.8742 193.816 24.9318 193.406 24.9318V26.9318ZM195.112 26.6658C195.658 26.4806 196.145 26.1953 196.556 25.8037L195.177 24.3554C194.991 24.532 194.761 24.6728 194.469 24.7717L195.112 26.6658ZM196.556 25.8037C196.97 25.4093 197.278 24.9321 197.483 24.3902L195.613 23.6809C195.506 23.9627 195.359 24.1816 195.177 24.3554L196.556 25.8037ZM196.482 25.0333L200.68 25.3103L200.812 23.3147L196.614 23.0377L196.482 25.0333ZM199.767 24.1058C199.589 24.9516 199.228 25.6751 198.684 26.295L200.187 27.6141C200.964 26.7284 201.477 25.6905 201.724 24.5192L199.767 24.1058ZM198.683 26.2955C198.145 26.9093 197.436 27.4066 196.525 27.7745L197.275 29.6289C198.438 29.1588 199.418 28.4913 200.188 27.6136L198.683 26.2955ZM196.528 27.7732C195.639 28.1289 194.58 28.3196 193.331 28.3196V30.3196C194.781 30.3196 196.101 30.0984 197.271 29.6302L196.528 27.7732Z" fill="#06283D" mask="url(#path-1-outside-1_1901_557)"/>
<path fill-rule="evenodd" clip-rule="evenodd" d="M11.741 11.9806C13.0881 10.6336 14.946 9.80225 17.0001 9.80225C19.0542 9.80225 20.9121 10.6336 22.2592 11.9806C22.6742 12.3956 23.3469 12.3956 23.7618 11.9806C24.1768 11.5657 24.1768 10.893 23.7618 10.478C22.0325 8.74873 19.6404 7.67725 17.0001 7.67725C14.3598 7.67725 11.9677 8.74873 10.2384 10.478C9.82347 10.893 9.82347 11.5657 10.2384 11.9806C10.6533 12.3956 11.3261 12.3956 11.741 11.9806ZM14.7462 14.9858C15.3242 14.4079 16.1196 14.0522 17.0001 14.0522C17.8806 14.0522 18.676 14.4079 19.254 14.9858C19.6689 15.4008 20.3417 15.4008 20.7566 14.9858C21.1715 14.5709 21.1715 13.8982 20.7566 13.4832C19.7964 12.523 18.4668 11.9272 17.0001 11.9272C15.5334 11.9272 14.2038 12.523 13.2436 13.4832C12.8287 13.8982 12.8287 14.5709 13.2436 14.9858C13.6585 15.4008 14.3313 15.4008 14.7462 14.9858ZM24.0835 17.9377C26.2351 17.9377 27.9793 19.6819 27.9793 21.8335V24.6669C27.9793 26.8185 26.2351 28.5627 24.0835 28.5627L9.91683 28.5627C7.76522 28.5627 6.021 26.8185 6.021 24.6669V21.8335C6.021 19.6819 7.76522 17.9377 9.91683 17.9377H24.0835ZM17.0002 24.6669C17.0002 25.3369 17.2328 25.9526 17.6216 26.4377L9.91683 26.4377C8.93883 26.4377 8.146 25.6449 8.146 24.6669V21.8335C8.146 20.8555 8.93883 20.0627 9.91683 20.0627H17.6216C17.2328 20.5478 17.0002 21.1635 17.0002 21.8335V24.6669Z" fill="#28303F"/>
</svg>
