<svg width="302" height="304" viewBox="0 0 302 304" fill="none" xmlns="http://www.w3.org/2000/svg">
<path d="M151 152V215.333M203.603 278.667H98.3971C69.3454 278.667 45.7943 256.043 45.7943 228.136V166.352C45.7943 157.381 42.0845 148.777 35.4809 142.434C20.1811 127.737 22.17 103.386 39.6689 91.1608L120.06 34.9979C138.506 22.1117 163.494 22.1117 181.939 34.9979L262.331 91.1608C279.83 103.386 281.819 127.737 266.519 142.434C259.915 148.777 256.205 157.381 256.205 166.352V228.136C256.205 256.043 232.654 278.667 203.603 278.667Z" stroke="#06283D" stroke-width="1.5" stroke-linecap="round"/>
<path d="M163.583 114C163.583 120.996 157.949 126.667 151 126.667C144.05 126.667 138.417 120.996 138.417 114C138.417 107.004 144.05 101.333 151 101.333C157.949 101.333 163.583 107.004 163.583 114Z" fill="#06283D"/>
</svg>
