<svg width="18" height="18" viewBox="0 0 18 18" fill="none" xmlns="http://www.w3.org/2000/svg">
<rect width="18" height="18" fill="#E5E5E5"/>
<path fill-rule="evenodd" clip-rule="evenodd" d="M12.1353 16.5C13.8668 16.5 15.2705 15.1605 15.2705 13.5081V9.84978C15.2705 9.31861 15.4916 8.80919 15.8852 8.4336C16.7971 7.56338 16.6786 6.12154 15.6356 5.39769L10.8441 2.07225C9.74469 1.30925 8.25531 1.30925 7.15593 2.07225L2.36438 5.39769C1.3214 6.12154 1.20285 7.56338 2.11477 8.4336C2.50836 8.80919 2.72947 9.31861 2.72947 9.84978V13.5081C2.72947 15.1605 4.13318 16.5 5.86474 16.5H12.1353ZM9 6.9375C9.31066 6.9375 9.5625 7.18934 9.5625 7.5V9C9.5625 9.31066 9.31066 9.5625 9 9.5625C8.68934 9.5625 8.4375 9.31066 8.4375 9V7.5C8.4375 7.18934 8.68934 6.9375 9 6.9375ZM7.17173 8.88792C7.3773 8.655 7.35514 8.29954 7.12222 8.09396C6.88931 7.88839 6.53385 7.91055 6.32827 8.14347C5.77428 8.77114 5.4375 9.59695 5.4375 10.5001C5.4375 12.4676 7.03249 14.0626 9 14.0626C10.9675 14.0626 12.5625 12.4676 12.5625 10.5001C12.5625 9.59695 12.2257 8.77114 11.6717 8.14347C11.4662 7.91055 11.1107 7.88839 10.8778 8.09396C10.6449 8.29954 10.6227 8.655 10.8283 8.88792C11.2078 9.31795 11.4375 9.8815 11.4375 10.5001C11.4375 11.8463 10.3462 12.9376 9 12.9376C7.65381 12.9376 6.5625 11.8463 6.5625 10.5001C6.5625 9.8815 6.79218 9.31795 7.17173 8.88792Z" fill="#06283D"/>
</svg>
