<svg width="18" height="18" viewBox="0 0 18 18" fill="none" xmlns="http://www.w3.org/2000/svg">
<g clip-path="url(#clip0_1901_266)">
<path d="M9 7.5V9M11.25 8.51559C11.7168 9.04444 12 9.73913 12 10.5C12 12.1568 10.6569 13.5 9 13.5C7.34315 13.5 6 12.1568 6 10.5C6 9.73913 6.28323 9.04444 6.75 8.51559M12.1353 16.5H5.86474C4.13318 16.5 2.72947 15.1605 2.72947 13.5081V9.84978C2.72947 9.31861 2.50836 8.80919 2.11477 8.4336C1.20285 7.56338 1.3214 6.12154 2.36438 5.39769L7.15593 2.07225C8.25531 1.30925 9.74469 1.30925 10.8441 2.07225L15.6356 5.39769C16.6786 6.12154 16.7971 7.56338 15.8852 8.4336C15.4916 8.80919 15.2705 9.31861 15.2705 9.84978V13.5081C15.2705 15.1605 13.8668 16.5 12.1353 16.5Z" stroke="#06283D" stroke-width="1.5" stroke-linecap="round"/>
</g>
<defs>
<clipPath id="clip0_1901_266">
<rect width="18" height="18" fill="white"/>
</clipPath>
</defs>
</svg>
