<svg width="18" height="18" viewBox="0 0 18 18" fill="none" xmlns="http://www.w3.org/2000/svg">
<path d="M7.5 5.25C7.5 6.49264 6.49264 7.5 5.25 7.5C4.00736 7.5 3 6.49264 3 5.25C3 4.00736 4.00736 3 5.25 3C6.49264 3 7.5 4.00736 7.5 5.25Z" stroke="#06283D" stroke-width="1.5" stroke-linejoin="round"/>
<path d="M15 12.75C15 13.9926 13.9926 15 12.75 15C11.5074 15 10.5 13.9926 10.5 12.75C10.5 11.5074 11.5074 10.5 12.75 10.5C13.9926 10.5 15 11.5074 15 12.75Z" stroke="#06283D" stroke-width="1.5" stroke-linejoin="round"/>
<path d="M7.5 12.75C7.5 13.9926 6.49264 15 5.25 15C4.00736 15 3 13.9926 3 12.75C3 11.5074 4.00736 10.5 5.25 10.5C6.49264 10.5 7.5 11.5074 7.5 12.75Z" stroke="#06283D" stroke-width="1.5" stroke-linejoin="round"/>
<path d="M15 5.25C15 6.49264 13.9926 7.5 12.75 7.5C11.5074 7.5 10.5 6.49264 10.5 5.25C10.5 4.00736 11.5074 3 12.75 3C13.9926 3 15 4.00736 15 5.25Z" stroke="#06283D" stroke-width="1.5" stroke-linejoin="round"/>
</svg>
